<svg id="Layer_1" data-name="Layer 1" xmlns="http://www.w3.org/2000/svg" viewBox="0 0 74 56"><defs><style>.cls-1{fill:#fb8c00;}.cls-2{fill:#c65000;}.cls-3{fill:#919191;}.cls-4{fill:#4b4b4b;opacity:0.6;isolation:isolate;}.cls-5{fill:#717171;}.cls-6{fill:#9d160c;}</style></defs><title>analysis-time-series_new-02</title><polygon class="cls-1" points="44.03 3.96 44.48 3.96 43.01 0.73 43.01 1.67 44.03 3.96"/><polygon class="cls-1" points="55.62 29.96 55.93 29.96 56.35 29.96 46.31 7.96 45.81 7.96 55.62 29.96"/><polygon class="cls-1" points="57.01 37.96 57.01 38.72 58.11 37.96 57.01 37.96"/><polygon class="cls-1" points="60.97 35.06 60.97 35.99 73.88 27.11 73.88 26.34 60.97 35.06"/><polygon class="cls-1" points="52.97 37.96 52.1 37.96 52.88 39.06 52.97 39.26 52.97 37.96"/><polygon class="cls-1" points="52.97 33.96 52.97 29.96 54.53 29.96 44.72 7.96 43.5 7.96 43.56 8.03 43.01 8.4 43.01 11.96 42.97 11.96 41.93 11.96 40.5 11.96 50.55 33.96 52.97 33.96"/><polygon class="cls-1" points="57.01 33.96 60.81 33.96 73.88 25.14 73.88 18.68 57.01 30.3 57.01 33.96"/><polygon class="cls-2" points="60.81 33.96 57.01 33.96 55.93 33.96 55.93 29.96 55.62 29.96 45.81 7.96 44.72 7.96 54.53 29.96 52.97 29.96 52.97 33.96 50.55 33.96 48.97 33.96 48.97 36.88 52.97 36.88 52.97 37.96 52.97 39.26 52.97 41.96 55.93 41.96 55.93 36.88 56.97 36.88 57.01 36.88 60.97 36.88 60.97 35.99 60.97 35.06 73.88 26.34 73.88 25.14 60.81 33.96"/><polygon class="cls-1" points="26.97 19.23 26.97 20.01 38.97 11.75 38.97 11.13 26.97 19.23"/><polygon class="cls-1" points="26.97 17.96 26.97 18.03 38.97 9.93 38.97 7.96 34.97 7.96 34.97 6.88 34.97 6.08 23.01 14.31 23.01 17.96 26.97 17.96"/><polygon class="cls-1" points="38.97 3.96 38.97 3.1 37.68 3.96 38.97 3.96"/><polygon class="cls-2" points="43.5 7.96 43.01 7.96 43.01 8.4 43.56 8.03 43.5 7.96"/><polygon class="cls-2" points="14.97 20.88 18.97 20.88 18.97 21.96 18.97 21.96 18.97 25.96 21.93 25.96 21.93 20.88 22.97 20.88 23.01 20.88 26.97 20.88 26.97 21.96 26.97 21.96 26.97 20.01 26.97 19.23 38.97 11.13 38.97 11.75 38.97 11.96 40.5 11.96 41.93 11.96 41.93 6.88 42.97 6.88 43.01 6.88 46.97 6.88 46.97 3.96 44.48 3.96 44.03 3.96 43.01 1.67 43.01 3.96 41.93 3.96 41.93 -0.04 38.97 -0.04 38.97 3.1 38.97 3.96 37.68 3.96 34.97 3.96 34.97 6.08 34.97 6.88 38.97 6.88 38.97 7.96 38.97 9.93 26.97 18.03 26.97 17.96 23.01 17.96 21.93 17.96 21.93 13.96 18.97 13.96 18.97 17.96 14.97 17.96 14.97 20.88"/><polygon class="cls-3" points="0.27 -0.04 0.26 -0.04 0.27 0.16 0.27 -0.04"/><path class="cls-3" d="M73.86,55.93h-.23L70.8,56H74v0h-.11Z"/><path class="cls-3" d="M6.76,49.92,8,9.59V0H2.27v53.1l71.62.88,0,2H74V48H72.91Z"/><path class="cls-3" d="M.54,55.67V55H.26V34.85c0-2.48,0-5,0-7.42V13.68L.26,0H0V56H24.78c-7.84-.06-15.68-.13-23.52-.29Z"/><path class="cls-1" d="M74.24,55.92h0Z"/><path class="cls-4" d="M74.24,55.92h0Z"/><path class="cls-1" d="M37.75,56.08H56q7.41,0,14.82-.12h-46C29.1,56,33.43,56,37.75,56.08Z"/><path class="cls-4" d="M37.75,56.08H56q7.41,0,14.82-.12h-46C29.1,56,33.43,56,37.75,56.08Z"/><path class="cls-3" d="M.22,27.43c0,2.47,0,4.94,0,7.42V0h0l0,13.72Z"/><path class="cls-4" d="M.22,27.43c0,2.47,0,4.94,0,7.42V0h0l0,13.72Z"/><path class="cls-3" d="M73.86,55.92h0Z"/><path class="cls-4" d="M73.86,55.92h0Z"/><path class="cls-3" d="M.54,55v.64h.72c7.84.16,15.68.23,23.52.29h46l2.83,0Z"/><path class="cls-4" d="M.54,55v.64h.72c7.84.16,15.68.23,23.52.29h46l2.83,0Z"/><polygon class="cls-5" points="0.26 34.85 0.26 55.03 0.54 55.03 73.63 55.93 73.86 55.93 73.86 55.92 73.86 55.91 73.88 53.94 2.26 53.06 2.27 -0.04 0.27 -0.04 0.27 0.16 0.26 34.85"/><polygon class="cls-5" points="8.26 47.92 8.26 -0.08 7.97 9.59 6.76 49.92 72.91 47.96 74.26 47.92 8.26 47.92"/><polygon class="cls-6" points="18.97 20.88 14.97 20.88 14.97 21.96 18.97 21.96 18.97 21.96 18.97 20.88"/><polygon class="cls-6" points="23.01 20.88 22.97 20.88 21.93 20.88 21.93 25.96 22.97 25.96 23.01 25.96 23.01 21.96 26.97 21.96 26.97 20.88 23.01 20.88"/><polygon class="cls-6" points="21.93 17.96 23.01 17.96 23.01 14.31 23.01 13.96 22.97 13.96 21.93 13.96 21.93 17.96"/><rect class="cls-6" x="34.97" y="6.88" width="4" height="1.08"/><polygon class="cls-6" points="43.01 6.88 42.97 6.88 41.93 6.88 41.93 11.96 42.97 11.96 43.01 11.96 43.01 8.4 43.01 7.96 43.5 7.96 44.72 7.96 45.81 7.96 46.31 7.96 46.97 7.96 46.97 6.88 43.01 6.88"/><polygon class="cls-6" points="41.93 3.96 43.01 3.96 43.01 1.67 43.01 0.73 43.01 -0.04 42.97 -0.04 41.93 -0.04 41.93 3.96"/><polygon class="cls-6" points="52.97 37.96 52.97 36.88 48.97 36.88 48.97 37.96 52.1 37.96 52.97 37.96"/><polygon class="cls-6" points="57.01 36.88 56.97 36.88 55.93 36.88 55.93 41.96 56.97 41.96 57.01 41.96 57.01 38.72 57.01 37.96 58.11 37.96 60.97 37.96 60.97 36.88 57.01 36.88"/><polygon class="cls-6" points="55.93 33.96 57.01 33.96 57.01 30.3 57.01 29.96 56.97 29.96 56.35 29.96 55.93 29.96 55.93 33.96"/></svg>